<?xml version="1.0" encoding="utf-8"?>
<!DOCTYPE svg PUBLIC "-//W3C//DTD SVG 1.1//EN" "http://www.w3.org/Graphics/SVG/1.1/DTD/svg11.dtd">
<svg version="1.1" id="图形" xmlns="http://www.w3.org/2000/svg" xmlns:xlink="http://www.w3.org/1999/xlink" x="0px" y="0px" width="2291px" height="1024px" viewBox="0 0 2291 1024" enable-background="new 0 0 2291 1024" xml:space="preserve">
  <path fill="#fff" d="M949.002817 116.833803l1182.647887 0 0-5.769014-1182.647887 0 0 5.769014ZM433.146231 451.093363c-4.139268 0-7.704518-0.784586-10.727482-2.313375-3.043155-1.537442-5.567099-3.620056-7.600676-6.247842-2.010501-2.593172-3.545059-5.362299-4.618096-8.904473-1.08169-3.553713-1.698975-8.151617-1.854738-11.036124l48.295301 0c0.250952 8.653521-1.554749 15.893634-5.463256 21.054017C447.288969 448.849217 441.274772 451.093363 433.146231 451.093363zM706.210975 207.098682c-29.949837 0-45.722321-15.267696-47.265532-46.997273l88.346682 0C749.377623 191.830986 735.690637 207.098682 706.210975 207.098682zM761.457938 644.698592 183.512338 644.698592C153.761532 644.698592 129.802817 618.720721 129.802817 588.978569l0-577.957138C129.802817-18.720721 153.761532-44.698592 183.512338-44.698592l577.9456 0c29.742152 0 54.857555 25.97787 54.857555 55.720023L816.315493 588.978569C816.315493 618.720721 791.20009 644.698592 761.457938 644.698592zM749.1584 459.694963c0 0 2.647977-83.093994-75.856766-75.943301 10.995741 33.572777 42.615707 53.196079 42.615707 53.196079-29.220056-6.902625-53.487414-51.776901-53.487414-51.776901S660.707876 454.026907 749.1584 459.694963zM236.529577 137.483989c0-35.254445-20.191549-52.924935-60.574648-52.924935l0 11.587065c31.729577 0 46.152113 13.790828 46.152113 41.33787L222.107042 269.712676l14.422535 0L236.529577 137.483989zM245.183099 352.322073c0-0.87689 0.493251-1.655707-0.049037-2.345104-0.49902-0.686513-1.070152-1.223031-2.322028-1.655707-1.292259-0.406715-2.855662-0.749972-4.97289-1.012462-2.157611-0.256721-4.776744-0.398062-8.13431-0.398062-3.250839 0-5.9392 0.141341-8.117003 0.398062-2.157611 0.26249-3.876777 0.605746-5.157499 1.012462-1.292259 0.432676-1.883583 0.969194-2.477792 1.655707-0.530749 0.689397-0.49902 1.471099-0.49902 2.345104l0 156.960451c0 0.845161-0.023076 1.618208 0.510558 2.322028 0.594208 0.660552 1.349949 1.223031 2.642208 1.6384 1.280721 0.438445 2.945082 0.781701 5.105577 1.041307 2.177803 0.250952 4.871932 0.37787 8.122772 0.37787 3.357566 0 6.048811-0.126918 8.206423-0.37787 2.117228-0.259606 3.847932-0.602862 5.140192-1.041307 1.251876-0.418254 1.459561-0.980732 1.95858-1.6384 0.542287-0.70382 0.043268-1.476868 0.043268-2.322028L245.183099 448.552113l63.459155 0 0 60.730411c0 0.845161 0.366332 1.618208 0.90862 2.322028 0.562479 0.660552 1.459561 1.223031 2.731628 1.6384 1.251876 0.438445 2.98258 0.781701 5.169037 1.041307 2.177803 0.250952 4.941161 0.37787 8.295842 0.37787 3.242186 0 5.936315-0.126918 8.085273-0.37787 2.146073-0.259606 3.871008-0.602862 5.143076-1.041307 1.280721-0.418254 2.549904-0.980732 3.10373-1.6384 0.550941-0.70382 1.173994-1.476868 1.173994-2.322028l0-156.960451c0-0.87689-0.620169-1.655707-1.173994-2.345104-0.550941-0.686513-1.649938-1.223031-2.930659-1.655707-1.272068-0.406715-3.077769-0.749972-5.226727-1.012462-2.148958-0.256721-4.877701-0.398062-8.119887-0.398062-3.357566 0-6.129577 0.141341-8.30738 0.398062-2.189341 0.26249-3.908507 0.605746-5.160383 1.012462-1.272068 0.432676-2.218186 0.969194-2.780665 1.655707-0.542287 0.689397-0.914389 1.471099-0.914389 2.345104L308.639369 419.707042 245.183099 419.707042 245.183099 352.322073zM412.484507 85.104225l-8.517949 0-1.543211 16.958017c-22.340507-11.465915-41.883042-17.367617-58.405499-17.367617-29.271977 0-44.029115 16.623414-44.029115 50.147155L299.988732 220.676056l14.422535 0 0-86.235223c0-25.184631 12.420687-37.79858 37.42071-37.79858 13.635065 0 28.922952 5.708439 49.114501 17.102242L400.946479 220.676056l11.538028 0L412.484507 85.104225zM470.174648 85.104225l-11.538028 0 0 135.571831 11.538028 0L470.174648 85.104225zM470.174648 255.290141l-11.538028 0 0 11.538028 11.538028 0L470.174648 255.290141zM487.48169 412.674614c0-3.92293-0.640361-6.221882-2.359527-8.096811-1.771087-1.889352-3.963313-2.177803-7.006468-2.177803l-69.770456 0c0-5.769014 0.562479-9.974625 1.730704-13.937938 1.176879-3.997927 3.002772-7.672789 5.535369-10.473645 2.500868-2.792203 5.786321-5.076732 9.755403-6.501679 3.992158-1.459561 8.737172-2.270107 14.312924-2.270107 5.659403 0 10.600563 0.360563 14.907132 1.179763 4.263301 0.827854 7.975662 1.704744 11.122659 2.705668 3.126806 0.960541 5.694017 1.857623 7.747786 2.650862 2.085499 0.824969 3.709476 1.223031 5.024811 1.223031 0.76151 0 1.419177-0.132687 1.918197-0.481713 0.510558-0.271144 0.937465-0.781701 1.26053-1.569172 0.398062-0.76151 0.605746-1.840315 0.721127-3.285454 0.14711-1.413408 0.230761-3.207572 0.230761-5.310377 0-1.935504-0.060575-3.524868-0.167301-4.837318-0.072113-1.329758-0.199031-2.446062-0.374986-3.377758-0.167301-0.969194-0.418254-1.745127-0.76151-2.397025-0.354794-0.643245-0.781701-1.303797-1.335527-1.863392-0.550941-0.602862-2.085499-1.407639-4.574828-2.4576-2.480676-1.006693-5.647865-1.998963-9.507335-3.008541-3.845048-0.974963-8.275651-1.854738-13.237003-2.575865-4.952699-0.738434-10.277499-1.087459-15.919594-1.087459-10.216924 0-19.109859 1.306682-26.759572 3.850817-7.69298 2.564327-14.07351 6.446873-19.213701 11.696676-5.148845 5.215189-8.985239 11.829363-11.497645 19.779065-2.532597 7.975662-3.784473 17.309927-3.784473 28.037408 0 10.162118 1.312451 19.326197 3.960428 27.526851 2.656631 8.203538 6.504563 15.12347 11.549566 20.779989 5.056541 5.731515 11.194772 10.069814 18.420462 13.04951 7.254535 3.020079 15.437882 4.534445 24.498118 4.534445 9.579448 0 17.78587-1.448023 24.601961-4.260417 6.807437-2.849893 12.394727-6.738208 16.753217-11.774558 4.378682-4.984428 7.34107-10.940935 9.415031-17.768563 2.001848-6.862242 2.806625-14.295617 2.806625-22.386659L487.484575 412.674614zM617.284507 204.061296c-11.538028 2.57298-22.054941 3.847932-33.189138 3.847932-40.66578 0-60.894828-17.791639-60.894828-53.302806 0-38.998535 20.180011-58.460304 60.842907-58.460304 11.134197 0 21.703031 1.280721 33.241059 3.862355l0-11.566873c-11.538028-2.575865-22.897217-3.882546-35.753465-3.882546-48.817397 0-73.133792 23.355854-73.133792 70.044485 0 43.235876 24.264473 64.869679 73.08187 64.869679 12.853363 0 24.267358-1.266299 35.805386-3.847932L617.284507 204.061296zM621.940101 459.943031l-38.121645-112.290975-13.883132-40.576361c-0.76151-2.122997-2.8672-3.666208-6.308417-4.603673-3.409487-0.946118-8.414107-1.413408-15.031166-1.413408-3.418141 0-6.169961 0.138456-8.235268 0.444214-2.022039 0.299989-3.585442 0.793239-4.606558 1.488406-1.041307 0.692282-1.583594 1.531673-1.647054 2.558558-0.11538 1.009577 0.14711 2.264338 0.76151 3.729668l15.282118 38.375482c-1.104766 0.548056-2.10569 1.329758-3.002772 2.42587-0.885544 1.047076-1.572056 2.189341-2.001848 3.415256l-39.434096 105.307583c-1.116304 2.979696-1.687437 5.284417-1.687437 6.908394 0 1.546096 0.510558 2.786434 1.543211 3.683515 1.041307 0.905735 2.783549 1.520135 5.212304 1.87493 2.440293 0.325949 5.691132 0.49902 9.694828 0.49902 3.689285 0 6.640135-0.03173 8.745825-0.196146 2.13742-0.135572 3.816203-0.470175 5.013273-0.943234 1.220146-0.536518 2.097037-1.306682 2.691245-2.382603 0.6144-1.073037 1.176879-2.108575 1.802817-4.087346L565.700868 387.977465l0.386524 0 24.642344 77.717273c0.510558 2.238377 1.188417 3.452755 2.001848 4.196958 0.813431 0.721127 2.169149 1.13938 4.055617 1.494175 1.866276 0.325949 5.160383 0.438445 9.873668 0.438445 3.677746 0 6.775707-0.201915 9.18427-0.527865 2.480676-0.354794 4.24311-1.012462 5.399797-1.964349 1.156687-0.93458 1.742242-2.206648 1.742242-3.784473C622.984293 463.949611 622.629499 462.103527 621.940101 459.943031zM760.021454 148.56338l-101.076011 0c0-34.614085 20.136744-52.659561 61.739989-52.659561 11.904361 0 23.514501 1.52302 35.05253 4.104654l0-11.566873c-11.538028-2.575865-25.712496-3.882546-42.736856-3.882546-45.482907 0-67.892642 23.021251-67.892642 68.977217 0 43.954118 21.694377 65.691763 64.786028 65.691763C749.472811 219.230918 766.275065 194.715493 760.021454 148.56338zM1077.374918 564.275651l-89.904315 0L987.470603 606.063504c0 5.278648 3.588327 5.344992 9.112158 5.344992l72.579966 0c5.509408 0 8.212192-0.063459 8.212192-5.344992L1077.374918 564.275651zM983.56498 566.214039l97.732868 0 0-2.633555-97.732868 0 0 2.633555ZM989.977239 557.984541l84.911234 0 0-9.968856-84.911234 0 0 9.968856ZM1074.715403 541.439008 1039.305194 540.856338l-12.781251 0-36.546704 0c0 0-38.089915-25.781724-38.089915-46.042501l0-123.78862 0-177.847166c0-0.885544 0.239414-2.097037 0.473059-2.901814 1.794163-8.783324 9.983279-15.752293 19.69253-15.752293l60.643876 0 0.452868 0 60.638107 0c9.706366 0 17.624338 6.968969 19.415617 15.752293 0.253837 0.804777 0.213454 2.01627 0.213454 2.901814l0 177.847166 0 122.098299C1113.419718 513.499673 1074.715403 541.439008 1074.715403 541.439008zM1090.343662 244.135752c0-4.476755-2.503752-6.152654-6.968969-6.152654l-100.750062 0c-4.479639 0-7.661251 1.675899-7.661251 6.152654l0 221.016699c0 4.479639 3.184496 6.475718 7.661251 6.475718l100.750062 0c4.465217 0 6.968969-1.996079 6.968969-6.475718L1090.343662 244.135752zM1279.362524 541.439008 1243.793668 540.856338l-12.78702 0-36.552473 0c0 0-37.769735-25.781724-37.769735-46.042501l0-123.78862 0-177.847166c0-0.885544 0.08942-2.097037 0.314411-2.901814 1.791279-8.783324 9.821746-15.752293 19.528113-15.752293l60.65253 0 0.444214 0 60.640992 0c9.703482 0 17.78587 6.968969 19.582918 15.752293 0.248068 0.804777 0.366332 2.01627 0.366332 2.901814l0 177.847166 0 122.098299C1318.219718 513.499673 1279.362524 541.439008 1279.362524 541.439008zM1295.143662 244.135752c0-4.476755-2.772011-6.152654-7.237228-6.152654l-100.750062 0c-4.479639 0-7.392992 1.675899-7.392992 6.152654l0 221.016699c0 4.479639 2.916237 6.475718 7.392992 6.475718l100.750062 0c4.465217 0 7.237228-1.996079 7.237228-6.475718L1295.143662 244.135752zM1281.866276 564.275651l-89.910085 0L1191.956192 606.063504c0 5.278648 3.582558 5.344992 9.106389 5.344992l72.574197 0c5.526715 0 8.229499-0.063459 8.229499-5.344992L1281.866276 564.275651zM1188.047685 566.214039l97.732868 0 0-2.633555-97.732868 0 0 2.633555ZM1194.457059 557.984541l84.922772 0 0-9.968856-84.922772 0 0 9.968856ZM1486.354749 564.275651l-89.915854 0L1396.438896 606.063504c0 5.278648 3.576789 5.344992 9.112158 5.344992l72.571313 0c5.520946 0 8.232383-0.063459 8.232383-5.344992L1486.354749 564.275651zM1392.536158 566.214039l97.735752 0 0-2.633555-97.735752 0 0 2.633555ZM1398.933994 557.984541l84.928541 0 0-9.968856-84.928541 0 0 9.968856ZM1484.006761 541.439008 1448.276372 540.856338l-12.781251 0-36.561127 0c0 0-37.44667-25.781724-37.44667-46.042501l0-123.78862 0-177.847166c0-0.885544-0.072113-2.097037 0.152879-2.901814 1.808586-8.783324 9.677521-15.752293 19.386772-15.752293l60.635223 0 0.455752 0 60.632338 0c9.71502 0 17.950287 6.968969 19.741566 15.752293 0.253837 0.804777 0.530749 2.01627 0.530749 2.901814l0 177.847166 0 122.098299C1523.019718 513.499673 1484.006761 541.439008 1484.006761 541.439008zM1499.943662 244.135752c0-4.476755-3.138344-6.152654-7.603561-6.152654l-100.750062 0c-4.479639 0-7.029544 1.675899-7.029544 6.152654l0 221.016699c0 4.479639 2.549904 6.475718 7.029544 6.475718l100.750062 0c4.465217 0 7.603561-1.996079 7.603561-6.475718L1499.943662 244.135752zM1690.834569 564.275651 1600.930254 564.275651 1600.930254 606.063504c0 5.278648 3.582558 5.344992 9.10062 5.344992l72.582851 0c5.509408 0 8.220845-0.063459 8.220845-5.344992L1690.834569 564.275651zM1597.018862 566.214039l97.729983 0 0-2.633555-97.729983 0 0 2.633555ZM1603.428237 557.984541l84.922772 0 0-9.968856-84.922772 0 0 9.968856ZM1688.653882 541.439008 1652.764845 540.856338l-12.789904 0-36.549589 0c0 0-37.140913-25.781724-37.140913-46.042501l0-123.78862 0-177.847166c0-0.885544-0.224992-2.097037 0-2.901814 1.797048-8.783324 9.513104-15.752293 19.216586-15.752293l60.646761 0 0.447099 0 60.638107 0c9.703482 0 18.106051 6.968969 19.903099 15.752293 0.23653 0.804777 0.674975 2.01627 0.674975 2.901814l0 177.847166 0 122.098299C1727.819718 513.499673 1688.653882 541.439008 1688.653882 541.439008zM1704.743662 244.135752c0-4.476755-3.452755-6.152654-7.917972-6.152654l-100.750062 0c-4.479639 0-6.712248 1.675899-6.712248 6.152654l0 221.016699c0 4.479639 2.232608 6.475718 6.712248 6.475718l100.750062 0c4.465217 0 7.917972-1.996079 7.917972-6.475718L1704.743662 244.135752zM1895.317273 564.275651l-89.910085 0L1805.407189 606.063504c0 5.278648 3.579673 5.344992 9.106389 5.344992l72.58862 0c5.509408 0 8.215076-0.063459 8.215076-5.344992L1895.317273 564.275651zM1801.507335 566.214039l97.732868 0 0-2.633555-97.732868 0 0 2.633555ZM1807.91671 557.984541l84.914118 0 0-9.968856-84.914118 0 0 9.968856ZM1893.289465 541.439008 1857.253318 540.856338l-12.784135 0-36.555358 0c0 0-36.829386-25.781724-36.829386-46.042501l0-123.78862 0-177.847166c0-0.885544-0.386524-2.097037-0.164417-2.901814 1.802817-8.783324 9.36311-15.752293 19.069476-15.752293l60.638107 0 0.447099 0 60.635223 0c9.717904 0 18.276237 6.968969 20.061746 15.752293 0.253837 0.804777 0.839392 2.01627 0.839392 2.901814l0 177.847166 0 122.098299C1932.619718 513.499673 1893.289465 541.439008 1893.289465 541.439008zM1909.543662 244.135752c0-4.476755-3.770051-6.152654-8.235268-6.152654l-100.750062 0c-4.479639 0-6.394952 1.675899-6.394952 6.152654l0 221.016699c0 4.479639 1.915313 6.475718 6.394952 6.475718l100.750062 0c4.468101 0 8.235268-1.996079 8.235268-6.475718L1909.543662 244.135752zM2099.808631 564.275651l-89.9072 0L2009.901431 606.063504c0 5.278648 3.579673 5.344992 9.103504 5.344992l72.577082 0c5.512293 0 8.226614-0.063459 8.226614-5.344992L2099.808631 564.275651zM2005.998693 566.214039l97.724214 0 0-2.633555-97.724214 0 0 2.633555ZM2012.39653 557.984541l84.925656 0 0-9.968856-84.925656 0 0 9.968856ZM2097.936586 541.439008 2061.738907 540.856338l-12.789904 0-36.552473 0c0 0-36.509206-25.781724-36.509206-46.042501l0-123.78862 0-177.847166c0-0.885544-0.536518-2.097037-0.314411-2.901814 1.797048-8.783324 9.195808-15.752293 18.902175-15.752293l60.646761 0 0.449983 0 60.638107 0c9.703482 0 18.420462 6.968969 20.203087 15.752293 0.256721 0.804777 1.006693 2.01627 1.006693 2.901814l0 177.847166 0 122.098299C2137.419718 513.499673 2097.936586 541.439008 2097.936586 541.439008zM2114.343662 244.135752c0-4.476755-4.084462-6.152654-8.546794-6.152654l-100.750062 0c-4.479639 0-6.083425 1.675899-6.083425 6.152654l0 221.016699c0 4.479639 1.60667 6.475718 6.083425 6.475718l100.750062 0c4.462332 0 8.546794-1.996079 8.546794-6.475718L2114.343662 244.135752zM1022.993307 409.801645 1038.485994 409.801645 1038.485994 330.904608 1030.689172 330.904608 1030.689172 402.102896 1018.271369 402.102896ZM1220.383008 385.084304l-7.542986 0c0.372101 8.021814 3.022963 14.448496 7.981431 19.291583 4.955583 4.848856 10.946704 7.271842 17.982017 7.271842 7.02089 0 12.859132-2.278761 17.482997-6.830513 4.632518-4.554637 6.945893-10.113082 6.945893-16.666682 0-4.88347-1.298028-9.403493-3.882546-13.554299-2.584518-4.15369-6.510332-9.074659-11.745713-14.757138l-19.574265-21.091515 36.292868 0 0-7.542986-53.331651 0 29.941183 32.3584c5.246918 5.67671 9.002546 10.162118 11.255346 13.438918 2.264338 3.279685 3.389296 7.029544 3.389296 11.264 0 4.222918-1.664361 7.941048-4.970006 11.139966-3.311414 3.207572-7.433375 4.808473-12.351459 4.808473-4.9152 0-9.005431-1.658592-12.241848-4.97289C1222.77138 395.932935 1220.899335 391.208113 1220.383008 385.084304zM1427.542535 391.536946l-7.984315 0c1.46533 6.484372 4.245994 11.460146 8.362186 14.921555 4.119076 3.458524 9.143887 5.192113 15.083087 5.192113 5.944969 0 11.114006-1.970118 15.524417-5.90747 4.410411-3.928699 6.614175-8.705442 6.614175-14.318693 0-6.775707-3.354682-12.129352-10.061161-16.060935 4.597904-1.903775 8.148732-4.724823 10.655369-8.474682 2.518175-3.752744 3.781589-7.845859 3.781589-12.296654 0-6.919932-2.544135-12.879324-7.603561-17.866637-5.065194-4.993082-11.457262-7.493949-19.181972-7.493949-6.850704 0-12.498569 1.952811-16.934941 5.84978-4.453679 3.899854-7.395876 9.602524-8.858321 17.110896l7.658366 0c1.373025-5.180575 3.510445-9.019854 6.389183-11.532259 2.875854-2.518175 6.934355-3.770051 12.184158-3.770051 5.252687 0 9.665983 1.667245 13.234118 5.024811 3.559482 3.351797 5.347876 7.505487 5.347876 12.458186s-1.961465 8.944856-5.893048 11.96782c-3.943121 3.022963-9.660214 4.606558-17.162817 4.756552l0 7.214152c5.385375 0 9.775594 1.237454 13.159121 3.709476 3.397949 2.480676 5.096924 5.558445 5.096924 9.241961 0 3.669093-1.381679 6.732439-4.098885 9.178501-2.743166 2.443177-6.040158 3.663324-9.902513 3.663324-3.856586 0-6.974738-1.032654-9.340034-3.115268C1431.243358 398.915515 1429.224203 395.765634 1427.542535 391.536946zM1662.298141 411.650614l1.531673 0 0-54.64987 9.513104 0 0-7.540101-9.513104 0 0-18.256045-7.753555 0 0 18.256045-37.602434 0L1662.298141 411.650614zM1656.076259 357.000744l0 32.675696-23.171245-32.675696L1656.076259 357.000744zM1873.172913 409.680496l0-7.436259-27.985487 0-3.928699-21.417465c3.501792 1.018231 6.784361 1.528789 9.844823 1.528789 6.850704 0 12.562028-2.428755 17.151279-7.268958 4.59502-4.851741 6.888203-11.0592 6.888203-18.6368 0-7.580485-2.495099-14.007166-7.485296-19.294468-4.990197-5.275763-11.607256-7.926625-19.845408-7.926625-6.25938 0-11.598603 1.880699-16.011899 5.633442-4.407527 3.752744-7.041082 8.866975-7.920856 15.351346l7.984315 0c0.943234-4.370028 2.907583-7.718941 5.901701-10.052507 2.98258-2.330682 6.446873-3.496023 10.384225-3.496023 5.169037 0 9.628485 1.93262 13.386997 5.797859 3.755628 3.856586 5.627673 8.667944 5.627673 14.42542 0 5.244034-1.641285 9.562141-4.920969 12.951437-3.273915 3.386411-7.557408 5.085386-12.836056 5.085386-5.290186 0-11.131313-1.387448-17.540687-4.159459l7.317994 38.914885L1873.172913 409.680496zM2064.833983 411.650614l6.443989-4.156575-21.201127-32.130524c2.985465 1.021115 5.826704 1.52302 8.517949 1.52302 5.832473 0 10.935166-2.307606 15.308079-6.937239 4.370028-4.623865 6.556485-10.277499 6.556485-16.94071 0-6.666096-2.391256-12.296654-7.162231-16.885904-4.770975-4.59502-10.565949-6.891087-17.37627-6.891087-6.81609 0-12.4928 2.336451-17.053206 6.997814-4.554637 4.661363-6.827628 10.343842-6.827628 17.05609 0 3.196034 0.628823 6.498794 1.863392 9.890975 1.2288 3.39218 3.599865 7.707403 7.101656 12.951437L2064.833983 411.650614zM2072.702918 353.392225c0 4.589251-1.612439 8.48622-4.808473 11.699561-3.210456 3.198918-7.101656 4.802704-11.699561 4.802704s-8.48622-1.603786-11.70533-4.802704c-3.193149-3.210456-4.802704-7.11031-4.802704-11.699561s1.626862-8.489104 4.869048-11.699561c3.239301-3.198918 7.121848-4.802704 11.638986-4.802704s8.402569 1.603786 11.638986 4.802704C2071.076056 344.900237 2072.702918 348.802975 2072.702918 353.392225zM945.376992 43.610592l0 8.515065 10.837093 0 3.484485 12.775482 10.064045-0.775932-3.484485-11.999549 17.03013 0 0-8.515065-19.741566 0c-1.032654-2.841239-2.454715-6.966085-4.257532-12.386073-1.54898-4.644056-2.708552-8.128541-3.484485-10.450569l9.290997 0 0 16.64649 7.742017 0 0-16.64649 8.901589 0 0-8.515065-8.901589 0 0-11.226501 10.450569 0.775932c0-0.775932 0-2.197994 0-4.260417-0.259606-2.322028-0.386524-4.003696-0.386524-5.03058-2.068192 0-5.166152-0.259606-9.290997-0.775932 2.83547 0.516327 2.575865 0.516327-0.775932 0l0-19.355042-9.674637 0 0 18.19547-17.419538-1.935504-0.773048 9.674637c1.802817 0 4.644056 0.253837 8.515065 0.775932 4.384451 0.253837 7.60933 0.513442 9.677521 0.775932l0 12.386073-16.64649 0 0 8.901589c0.253837 1.289375 0.899966 3.224879 1.935504 5.809397 2.322028 6.966085 3.997927 12.512992 5.033465 16.643606L945.376992 43.613476zM986.40622 4.130344l0 9.290997 47.608789 0 0-9.290997-18.57911 0 0-19.741566 23.223166 0 0-8.515065-56.899786 0 0 8.515065 23.612575 0 0 19.741566L986.40622 4.130344zM1033.244845 16.516417c-4.130614 2.578749-10.064045 6.446873-17.806062 11.613025 1.026885-0.775932 0.126918-0.259606-2.708552 1.546096-4.903662-4.130614-13.421611-8.647752-25.545194-13.545645-1.295144 2.83547-2.971042 5.806513-5.033465 8.904473 17.03013 5.417104 29.156597 13.672563 36.385172 24.772146l-31.351707 0 0 9.290997 42.964732 0 0-9.674637c-3.617172-5.942085-7.098772-10.453454-10.450569-13.54853 2.575865-1.292259 6.193037-3.357566 10.837093-6.193037 3.871008-2.322028 6.706479-4.003696 8.515065-5.03058L1033.244845 16.516417zM1052.519121-22.577307 1052.519121 60.643606l8.901589 0 0-75.092372 33.67662 0 0-6.966085c6.446873 8.768901 9.417915 21.290546 8.901589 37.547628l0 41.032113c14.964823 1.28649 26.710535 2.962389 35.2256 5.03058l3.484485-10.064045c-4.906546-0.773048-11.745713-1.678783-20.514614-2.705668-3.871008-0.26249-6.712248-0.522096-8.515065-0.775932l0-16.64649 29.029679 0 0-9.674637-8.904473 0 0-49.160654-9.674637 0 0 49.160654-10.450569 0 0-6.579561c0.513442-17.806062-2.841239-32.39013-10.064045-43.740665-1.032654 0.775932-2.841239 2.068192-5.417104 3.871008-1.295144 0.522096-2.322028 1.032654-3.097961 1.54898L1052.519121-22.571538zM1064.51867 23.485386l0 8.901589 13.54853 0 0 30.965183 8.515065 0 0-30.965183 12.386073 0 0-8.901589-12.386073 0 0-8.515065 2.708552 3.095076c4.644056-4.39022 8.901589-8.515065 12.772597-12.386073l-6.190152-6.193037c-1.295144 1.802817-3.357566 4.12773-6.193037 6.968969-1.295144 1.546096-2.322028 2.708552-3.095076 3.4816l0-20.901138-8.515065 0 0 22.839527c-3.357566-6.452642-7.48818-12.388958-12.386073-17.806062-1.032654 3.095076-2.322028 6.190152-3.871008 9.288113 5.673825 5.160383 10.704406 11.866862 15.094625 20.130975L1064.51867 23.48827zM1069.938659 38.193487c-1.032654 2.575865-2.454715 6.31707-4.257532 11.226501-1.032654 2.575865-1.808586 4.508485-2.322028 5.806513l6.193037 2.322028c2.322028-5.163268 4.644056-10.837093 6.968969-17.03013L1069.938659 38.193487zM1093.937758 37.806963l-6.193037 2.324913c1.026885 2.322028 2.448946 5.806513 4.257532 10.450569 1.54898 3.095076 2.578749 5.419989 3.097961 6.966085l6.193037-2.322028C1098.968338 49.546907 1096.513623 43.73751 1093.937758 37.806963zM1237.467944-27.221363c-2.324913 1.032654-5.806513 2.4576-10.450569 4.257532-12.388958 4.644056-21.812642 8.128541-28.256631 10.453454 0-3.097961 0-6.063234 0-8.904473-7.744901-1.026885-15.357115-2.578749-22.839527-4.644056-2.322028-0.513442-4.903662-1.413408-7.742017-2.708552l-5.03058 8.128541c2.322028 1.808586 3.4816 4.257532 3.4816 7.355493l0 45.673285c-1.292259-0.773048-3.227763-1.681668-5.806513-2.708552-1.808586-0.773048-3.095076-1.292259-3.871008-1.546096-1.292259 2.83547-2.968158 5.806513-5.03058 8.901589 21.67707 7.482411 36.639008 16.897442 44.897352 28.256631l12.388958-0.773048-2.708552-3.097961c9.544834-9.807324 23.090479-17.289735 40.642704-22.450118-1.292259-2.581634-2.708552-5.679594-4.257532-9.290997-1.54898 0.516327-3.74409 1.289375-6.579561 2.324913-1.808586 0.775932-3.230648 1.28649-4.260417 1.54898l0-31.741115 5.806513-6.193037c-4.903662-2.841239-9.934242-5.419989-15.094625-7.742017 3.095076-1.295144 7.742017-2.841239 13.935054-4.644056 2.322028-0.775932 4.124845-1.413408 5.419989-1.935504L1237.467944-27.221363zM1206.8864 37.806963l-4.257532-1.159572 22.836642 0c-9.810208 4.897893-18.065668 10.966896-24.772146 18.192586-6.715132-6.712248-15.094625-12.772597-25.161555-18.192586l21.67707 0c-0.259606 1.54898-1.032654 3.871008-2.324913 6.966085-0.519211 1.289375-0.905735 2.192225-1.159572 2.708552l9.290997 1.54898C1204.821093 44.253837 1206.113352 40.902039 1206.8864 37.806963zM1176.697149 29.289014l0-7.355493 45.676169 0 0 7.355493L1176.697149 29.289014zM1176.697149 14.970321l0-7.355493 45.676169 0 0 7.355493L1176.697149 14.970321zM1176.697149-16.770794c3.351797 0.253837 8.641983 1.28649 15.870558 3.095076 2.578749 0.516327 4.644056 0.899966 6.193037 1.162456-1.295144 0.513442-3.357566 1.28649-6.193037 2.322028-2.584518 1.026885-4.644056 1.802817-6.193037 2.322028l4.260417 6.968969c2.83547-0.775932 6.966085-2.19511 12.386073-4.260417 3.871008-1.292259 6.833397-2.322028 8.904473-3.095076 4.124845 1.802817 9.155425 4.511369 15.094625 8.128541l-50.320225 0L1176.700034-16.770794zM1267.198558 17.678873l0 42.578208 73.543392 0 0-42.578208-31.741115 0 0-8.128541 41.032113 0 0-8.901589-35.2256 0c8.515065-7.744901 20.514614-13.159121 35.998648-16.259966-0.775932-1.032654-1.935504-2.83547-3.484485-5.419989-0.775932-1.546096-1.295144-2.575865-1.54898-3.095076-16.776293 4.644056-29.029679 11.093814-36.771696 19.355042l0-22.839527-10.064045 0 0 23.226051c-7.742017-8.261228-20.001172-15.348462-36.771696-21.287662-0.259606 0.519211-0.64613 1.159572-1.159572 1.935504-0.522096 1.546096-1.935504 3.871008-4.260417 6.966085 15.484034 3.871008 27.350896 9.674637 35.612124 17.419538l-34.446783 0 0 8.901589 41.029228 0 0 8.128541L1267.198558 17.678873zM1276.873194 51.742017l0-8.901589 22.06071 0 0 8.901589L1276.873194 51.742017zM1276.873194 35.095527l0-8.901589 22.06071 0 0 8.901589L1276.873194 35.095527zM1331.064428 51.742017l-22.063594 0 0-8.901589 22.063594 0L1331.064428 51.742017zM1309.000834 35.095527l0-8.901589 22.063594 0 0 8.901589L1309.000834 35.095527zM1363.111301-23.736879l-1.935504 8.515065c1.54898 0 3.095076 0.253837 4.644056 0.773048l0 34.839076 7.355493 0 0-33.67662 6.190152 1.159572 0 33.67662 7.355493 10.064045-21.67707 0 0 8.125656 31.351707 0 0-7.742017-8.515065-12.386073 0-5.419989 8.904473 0 0-8.128541-8.904473 0 0-16.643606c1.026885 0.253837 2.578749 0.640361 4.644056 1.159572 1.802817 0.253837 3.224879 0.513442 4.260417 0.775932-0.26249-3.357566-0.26249-6.069003 0-8.128541-2.068192-0.253837-5.166152-0.775932-9.290997-1.54898C1376.659831-20.641803 1368.53129-22.44462 1363.111301-23.736879zM1361.95173 49.419989l0 8.515065 24.772146 0 0 6.579561 10.064045 0 0-6.579561 22.450118 0 0 6.579561 10.061161 0 0-6.579561 25.161555 0 0-8.515065-25.161555 0 0-3.873893-10.061161 0 0 3.873893-22.450118 0 0-5.033465-10.064045 0 0 5.033465L1361.95173 49.419989zM1398.334017-28.38382l-6.190152 6.579561c7.482411 3.617172 10.837093 10.577487 10.064045 20.901138l0 6.966085 8.515065 0 0-6.966085C1411.496023-13.808406 1407.365408-22.966715 1398.334017-28.38382zM1399.109949 29.675538l0 7.744901 20.514614 0-1.546096 5.419989 10.837093 1.159572 1.935504-6.579561 21.67707 0 0-7.744901-29.029679 0c-1.546096-1.292259-3.617172-3.227763-6.190152-5.806513-3.097961-2.841239-5.166152-4.776744-6.193037-5.806513 2.578749 0 6.579561 0.126918 11.999549 0.389408 5.157499 0 9.028507 0 11.610141 0l-4.644056 5.417104 6.193037 4.260417c5.673825-5.419989 11.226501-11.226501 16.64649-17.419538l-7.355493-5.03058-5.033465 6.193037c-6.452642-0.26249-14.581183-0.649014-24.385623-1.162456-2.841239-0.259606-4.776744-0.386524-5.806513-0.386524-3.617172 0-6.579561-0.259606-8.901589-0.775932l-3.097961 7.742017c3.097961 1.54898 7.60933 5.673825 13.54853 12.386073L1399.109949 29.675538zM1417.689059-25.672383l0 31.738231 8.904473 0 0-31.738231L1417.689059-25.672383zM1442.074682-25.672383c-5.679594-0.256721-8.388146 2.705668-8.128541 8.901589l0 22.836642 8.515065 0 0-21.67707c-0.259606-1.546096 0.516327-2.189341 2.324913-1.935504 1.802817-0.253837 2.83547 0.775932 3.095076 3.095076 0.516327 3.611403 0.775932 7.355493 0.775932 11.226501 1.026885-0.259606 2.578749-0.64613 4.644056-1.159572 1.026885-0.519211 1.675899-0.775932 1.935504-0.775932-0.259606-4.387335-0.649014-8.388146-1.159572-11.996665-0.775932-5.936315-3.871008-8.771786-9.290997-8.515065L1442.074682-25.672383zM1482.255865 16.902941c-5.166152 4.384451-10.972665 8.901589-17.419538 13.545645l6.968969 7.744901c2.83547-2.324913 7.093003-5.419989 12.775482-9.290997 2.322028-1.54898 3.997927-2.708552 5.03058-3.484485L1482.255865 16.902941zM1478.77138-27.221363l-10.837093 3.871008c4.384451 11.35342 7.992969 22.450118 10.837093 33.287211 4.644056-1.808586 8.128541-2.968158 10.450569-3.4816C1484.318287-8.001893 1480.833803-19.222625 1478.77138-27.221363zM1486.902806 42.45102c-5.679594 5.160383-11.483223 9.801555-17.419538 13.935054l7.355493 7.355493c6.446873-4.39022 12.386073-8.777555 17.806062-13.159121L1486.902806 42.45102zM1493.095842 22.32293l0 10.450569 26.707651 0 0 31.741115 11.226501 0 0-31.741115 27.870107 0 0-10.450569-27.870107 0 0-49.936586-11.226501 0 0 49.936586L1493.095842 22.32293zM1674.479414-21.417735l-12.386073 0 0 35.2256-42.191685 0 0-35.2256-11.999549 0 0 79.352789 11.999549 0 0-33.67662 42.191685 0 0 33.67662 12.386073 0L1674.479414-21.417735zM1737.494355-3.611673l12.386073-1.935504c-4.130614-11.35342-13.545645-17.03013-28.256631-17.03013-19.101206 0.775932-29.029679 10.450569-29.805611 29.029679 0.775932 19.868485 10.317882 30.192135 28.646039 30.965183 19.092552-0.26249 28.770073-10.586141 29.029679-30.965183 0-1.295144 0-2.324913 0-3.097961L1703.82062 3.354411c0.513442-11.096699 6.446873-17.03013 17.806062-17.806062C1730.141746-14.19493 1735.426163-10.577758 1737.494355-3.611673zM1703.82062 11.485837l34.063144 0c-0.519211 11.093814-6.066118 16.897442-16.64649 17.419538C1710.40018 28.383279 1704.593668 22.576766 1703.82062 11.485837zM1783.868575-19.092823l-23.999099 54.964282 12.775482 0 14.321577-38.320676 2.324913-7.355493 0.386524 0 2.322028 7.355493 13.159121 38.320676 12.775482 0c-13.681217-33.287211-21.933792-53.15858-24.772146-59.608338-4.906546-13.935054-11.359189-20.381927-19.355042-19.355042-4.903662 0-8.388146 0.649014-10.450569 1.935504l-0.775932 8.515065c2.578749-1.026885 5.03058-1.54898 7.355493-1.54898 4.897893-0.253837 8.382377 2.071076 10.450569 6.968969C1780.897532-26.18871 1782.059989-23.480158 1783.868575-19.092823zM1867.011606 57.935054l11.999549 0 0-52.25573c0.253837-19.101206-8.128541-28.510468-25.161555-28.256631-16.003245-0.253837-24.904834 7.992969-26.707651 24.772146l11.610141 3.097961c0.516327-12.388958 5.419989-18.452192 14.710986-18.19547 9.290997-0.259606 13.799482 6.060349 13.545645 18.965634L1867.008721 57.935054zM1950.933454-21.031211l-11.613025 0 0 9.677521c-4.130614-7.222806-10.450569-10.966896-18.965634-11.226501-14.194659 0-21.290546 7.482411-21.290546 22.450118l0 35.995763 11.613025 0 0-34.836192c0-10.064045 4.511369-15.094625 13.545645-15.094625 9.290997 0.775932 14.321577 6.319955 15.094625 16.64649l0 33.287211 11.613025 0L1950.930569-21.031211zM1970.204845 46.708552l0 11.996665 11.999549 0 0-11.996665L1970.204845 46.708552zM1970.204845-21.031211l0 56.90267 11.999549 0 0-56.90267L1970.204845-21.031211zM2054.126693 19.224969l-11.999549-2.322028c-2.584518 6.706479-7.355493 10.317882-14.321577 10.837093-11.099583-0.519211-16.776293-7.48818-17.03013-20.901138 0.253837-13.418727 5.933431-20.260777 17.03013-20.514614 8.515065 0.253837 13.412958 4.644056 14.710986 13.159121l12.386073-1.546096c-3.357566-14.194659-12.521645-21.030941-27.483583-20.514614-18.838715 0.519211-28.516237 10.317882-29.026794 29.416203 0.513442 19.868485 10.188079 30.059448 29.026794 30.581544C2040.834885 36.898344 2049.736473 30.840879 2054.126693 19.224969zM2111.338006-3.611673l12.386073-1.935504c-4.130614-11.35342-13.545645-17.03013-28.256631-17.03013-19.101206 0.775932-29.029679 10.450569-29.805611 29.029679 0.775932 19.868485 10.317882 30.192135 28.646039 30.965183 19.092552-0.26249 28.770073-10.586141 29.029679-30.965183 0-1.295144 0-2.324913 0-3.097961l-45.676169 0c0.513442-11.096699 6.446873-17.03013 17.806062-17.806062C2103.982513-14.19493 2109.26693-10.577758 2111.338006-3.611673zM2077.661386 11.485837l34.063144 0c-0.519211 11.093814-6.066118 16.897442-16.64649 17.419538C2084.240946 28.383279 2078.437318 22.576766 2077.661386 11.485837z" transform="translate(0, 812) scale(1, -1)"/>
</svg>
